<svg width="120" height="120" viewBox="0 0 120 120" fill="none" xmlns="http://www.w3.org/2000/svg">
  <defs>
    <!-- Body palettes by state -->
    <linearGradient id="bodyMint" x1="31" y1="23" x2="89" y2="86" gradientUnits="userSpaceOnUse">
      <stop offset="0" stop-color="#8EDFD7"/>
      <stop offset="0.55" stop-color="#6DCFC6"/>
      <stop offset="1" stop-color="#58BEB6"/>
    </linearGradient>
    <linearGradient id="bodyAmber" x1="31" y1="23" x2="89" y2="86" gradientUnits="userSpaceOnUse">
      <stop offset="0" stop-color="#FFD183"/>
      <stop offset="0.55" stop-color="#F8AF3F"/>
      <stop offset="1" stop-color="#E5901F"/>
    </linearGradient>
    <linearGradient id="bodyUrgent" x1="31" y1="23" x2="89" y2="86" gradientUnits="userSpaceOnUse">
      <stop offset="0" stop-color="#FF8681"/>
      <stop offset="0.55" stop-color="#F2554C"/>
      <stop offset="1" stop-color="#DE3A32"/>
    </linearGradient>
    <linearGradient id="bodyLate" x1="31" y1="23" x2="89" y2="86" gradientUnits="userSpaceOnUse">
      <stop offset="0" stop-color="#EB7B73"/>
      <stop offset="0.55" stop-color="#D95D55"/>
      <stop offset="1" stop-color="#BD433C"/>
    </linearGradient>

    <!-- Clay material layers -->
    <radialGradient id="ringSpecMain" cx="0" cy="0" r="1" gradientUnits="userSpaceOnUse" gradientTransform="translate(48 36) rotate(30) scale(19 12)">
      <stop offset="0" stop-color="#FFFFFF" stop-opacity="0.52"/>
      <stop offset="1" stop-color="#FFFFFF" stop-opacity="0"/>
    </radialGradient>
    <radialGradient id="ringSpecSub" cx="0" cy="0" r="1" gradientUnits="userSpaceOnUse" gradientTransform="translate(73 67) rotate(16) scale(15 8)">
      <stop offset="0" stop-color="#FFFFFF" stop-opacity="0.17"/>
      <stop offset="1" stop-color="#FFFFFF" stop-opacity="0"/>
    </radialGradient>
    <radialGradient id="ringBottomShade" cx="0" cy="0" r="1" gradientUnits="userSpaceOnUse" gradientTransform="translate(60 73) rotate(-90) scale(13 24)">
      <stop offset="0" stop-color="#15333E" stop-opacity="0.2"/>
      <stop offset="1" stop-color="#15333E" stop-opacity="0"/>
    </radialGradient>
    <linearGradient id="ringRimLight" x1="35" y1="25" x2="87" y2="82" gradientUnits="userSpaceOnUse">
      <stop offset="0" stop-color="#FFFFFF" stop-opacity="0.28"/>
      <stop offset="0.35" stop-color="#FFFFFF" stop-opacity="0.08"/>
      <stop offset="1" stop-color="#FFFFFF" stop-opacity="0"/>
    </linearGradient>

    <!-- Face inset -->
    <linearGradient id="faceCream" x1="41" y1="30" x2="79" y2="78" gradientUnits="userSpaceOnUse">
      <stop offset="0" stop-color="#FFF9EF"/>
      <stop offset="1" stop-color="#F8F0E3"/>
    </linearGradient>
    <radialGradient id="faceInsetAO" cx="0" cy="0" r="1" gradientUnits="userSpaceOnUse" gradientTransform="translate(60 64) rotate(-90) scale(16 24)">
      <stop offset="0" stop-color="#17242C" stop-opacity="0.16"/>
      <stop offset="1" stop-color="#17242C" stop-opacity="0"/>
    </radialGradient>

    <!-- Limbs -->
    <linearGradient id="limbMint" x1="0" y1="0" x2="1" y2="1">
      <stop offset="0" stop-color="#95E1DA"/>
      <stop offset="1" stop-color="#5CBBB4"/>
    </linearGradient>

    <!-- Top button -->
    <linearGradient id="btnBase" x1="52.3" y1="11.2" x2="67.7" y2="15.6" gradientUnits="userSpaceOnUse">
      <stop offset="0" stop-color="#A2E5DE"/>
      <stop offset="0.5" stop-color="#71CFC7"/>
      <stop offset="1" stop-color="#58BEB6"/>
    </linearGradient>

    <!-- Eyes -->
    <radialGradient id="eyeFill" cx="0" cy="0" r="1" gradientUnits="objectBoundingBox" gradientTransform="translate(0.32 0.25) scale(1.1)">
      <stop offset="0" stop-color="#2D3A53"/>
      <stop offset="1" stop-color="#0D1424"/>
    </radialGradient>
  </defs>

  <g id="shadow">
    <ellipse cx="60" cy="98" rx="23" ry="5.5" fill="#1F2A44" fill-opacity="0.12"/>
    <ellipse cx="60" cy="94.5" rx="14" ry="2.4" fill="#1F2A44" fill-opacity="0.14"/>
    <ellipse cx="60" cy="91.5" rx="11" ry="1.7" fill="#1F2A44" fill-opacity="0.07"/>
  </g>

  <g id="leftLeg">
    <ellipse cx="48" cy="90.2" rx="5.8" ry="4.3" fill="url(#limbMint)"/>
    <ellipse cx="47.2" cy="89.1" rx="2.4" ry="1.2" fill="#FFFFFF" fill-opacity="0.24"/>
    <ellipse cx="49" cy="91.4" rx="2.8" ry="1.3" fill="#1D3742" fill-opacity="0.12"/>
  </g>

  <g id="rightLeg">
    <ellipse cx="72" cy="90.2" rx="5.8" ry="4.3" fill="url(#limbMint)"/>
    <ellipse cx="72.8" cy="89.1" rx="2.4" ry="1.2" fill="#FFFFFF" fill-opacity="0.24"/>
    <ellipse cx="71" cy="91.4" rx="2.8" ry="1.3" fill="#1D3742" fill-opacity="0.12"/>
  </g>

  <g id="leftArm">
    <ellipse cx="36.6" cy="61" rx="4" ry="5.2" fill="url(#limbMint)"/>
    <ellipse cx="35.9" cy="59.8" rx="1.8" ry="1.2" fill="#FFFFFF" fill-opacity="0.22"/>
    <ellipse cx="37.3" cy="62.2" rx="1.9" ry="1.2" fill="#16333D" fill-opacity="0.12"/>
  </g>

  <g id="rightArm">
    <ellipse cx="83.4" cy="61" rx="4" ry="5.2" fill="url(#limbMint)"/>
    <ellipse cx="82.7" cy="59.8" rx="1.8" ry="1.2" fill="#FFFFFF" fill-opacity="0.22"/>
    <ellipse cx="84.1" cy="62.2" rx="1.9" ry="1.2" fill="#16333D" fill-opacity="0.12"/>
  </g>

  <g id="body">
    <g id="bodyDefault" opacity="1"><circle cx="60" cy="54" r="34" fill="url(#bodyMint)"/></g>
    <g id="bodyWarning" opacity="0"><circle cx="60" cy="54" r="34" fill="url(#bodyAmber)"/></g>
    <g id="bodyUrgent" opacity="0"><circle cx="60" cy="54" r="34" fill="url(#bodyUrgent)"/></g>
    <g id="bodyLate" opacity="0"><circle cx="60" cy="54" r="34" fill="url(#bodyLate)"/></g>

    <circle cx="60" cy="54" r="33.5" fill="url(#ringRimLight)"/>
    <ellipse cx="60" cy="71" rx="23.5" ry="9.8" fill="url(#ringBottomShade)"/>
    <ellipse cx="48" cy="36" rx="15.8" ry="9.5" fill="url(#ringSpecMain)"/>
    <ellipse cx="73" cy="66.5" rx="13.5" ry="7.6" fill="url(#ringSpecSub)"/>
    <ellipse cx="39.7" cy="60.7" rx="2.8" ry="1.7" fill="#14303A" fill-opacity="0.12"/>
    <ellipse cx="80.3" cy="60.7" rx="2.8" ry="1.7" fill="#14303A" fill-opacity="0.12"/>
  </g>

  <g id="face">
    <circle cx="60" cy="54" r="28.6" fill="#16323C" fill-opacity="0.16"/>
    <circle cx="60" cy="54" r="27.8" fill="url(#faceCream)"/>
    <circle cx="60" cy="54" r="27.8" fill="url(#faceInsetAO)"/>
    <ellipse cx="57.3" cy="34.5" rx="12" ry="3.4" fill="#FFFFFF" fill-opacity="0.22"/>
  </g>

  <g id="leftEye">
    <ellipse cx="51" cy="53" rx="2.45" ry="3.6" fill="url(#eyeFill)"/>
    <ellipse cx="50.25" cy="51.9" rx="0.78" ry="1.02" fill="#FFFFFF" fill-opacity="0.84"/>
  </g>

  <g id="rightEye">
    <ellipse cx="69" cy="53" rx="2.45" ry="3.6" fill="url(#eyeFill)"/>
    <ellipse cx="68.25" cy="51.9" rx="0.78" ry="1.02" fill="#FFFFFF" fill-opacity="0.84"/>
  </g>

  <g id="mouthNeutral" opacity="1">
    <path d="M56.4 61.3C57.2 62.5 58.5 63.2 60 63.2C61.5 63.2 62.8 62.5 63.6 61.3" stroke="#1F2A44" stroke-width="1.6" stroke-linecap="round"/>
  </g>
  <g id="mouthSmile" opacity="0">
    <path d="M55.6 61C56.8 63.1 58.3 64.2 60 64.2C61.7 64.2 63.2 63.1 64.4 61" stroke="#1F2A44" stroke-width="1.8" stroke-linecap="round"/>
  </g>
  <g id="mouthWarning" opacity="0">
    <path d="M56.2 63.3C57.1 62.1 58.4 61.5 60 61.5C61.6 61.5 62.9 62.1 63.8 63.3" stroke="#1F2A44" stroke-width="1.7" stroke-linecap="round"/>
  </g>
  <g id="mouthUrgent" opacity="0">
    <ellipse cx="60" cy="62.7" rx="2.1" ry="2.4" fill="#A42D24"/>
  </g>
  <g id="mouthOffroute" opacity="0">
    <path d="M56 63.6C57.3 61.9 58.8 61.1 60 61.1C61.2 61.1 62.7 61.9 64 63.6" stroke="#1F2A44" stroke-width="1.7" stroke-linecap="round"/>
  </g>
  <g id="mouthSurprised" opacity="0">
    <ellipse cx="60" cy="62.3" rx="1.4" ry="1.9" fill="#1F2A44"/>
  </g>

  <g id="topButton">
    <ellipse cx="60" cy="15.2" rx="7.8" ry="3.1" fill="url(#btnBase)"/>
    <ellipse cx="58.7" cy="14.4" rx="3.5" ry="1.1" fill="#FFFFFF" fill-opacity="0.28"/>
    <path d="M58.8 14.8H61.2" stroke="#F0FFFD" stroke-width="1.2" stroke-linecap="round"/>
    <ellipse cx="60" cy="17.8" rx="3.1" ry="0.8" fill="#123640" fill-opacity="0.18"/>
  </g>

  <g id="thinkingDots" opacity="0">
    <circle cx="82.5" cy="39" r="1.2" fill="#58C7C2"/>
    <circle cx="86.2" cy="37.1" r="1.7" fill="#58C7C2"/>
    <circle cx="90.7" cy="35.1" r="2.2" fill="#58C7C2"/>
  </g>

  <g id="sweat" opacity="0">
    <path d="M78.4 43.5C78.4 45.5 76.8 47.1 74.8 47.1C72.8 47.1 71.2 45.5 71.2 43.5C71.2 41.1 73.1 38.8 74.8 37C76.5 38.8 78.4 41.1 78.4 43.5Z" fill="#8ED1FF"/>
  </g>

  <g id="questionIcon" opacity="0">
    <path d="M79.6 34.7C79.6 31.4 77 29 73.7 29C70.8 29 68.4 30.9 67.9 33.6H70.6C70.9 32.4 71.9 31.8 73.2 31.8C74.6 31.8 75.6 32.8 75.6 34C75.6 35.2 74.7 35.8 73.5 36.4C71.5 37.3 70.4 38.5 70.4 40.4V40.9H73.8V40.6C73.8 39.6 74.3 39 75.5 38.5C77.7 37.4 79.6 36.2 79.6 34.7ZM73.5 44.8C74.6 44.8 75.6 43.9 75.6 42.7C75.6 41.5 74.6 40.6 73.5 40.6C72.3 40.6 71.4 41.5 71.4 42.7C71.4 43.9 72.3 44.8 73.5 44.8Z" fill="#58C7C2"/>
  </g>

  <g id="alertIcon" opacity="0">
    <circle cx="80.3" cy="36.1" r="4.8" fill="#EF4444"/>
    <rect x="79.6" y="33.2" width="1.4" height="3.8" rx="0.7" fill="#FFFFFF"/>
    <circle cx="80.3" cy="38.4" r="0.7" fill="#FFFFFF"/>
  </g>

  <g id="confetti" opacity="0">
    <rect x="43" y="30" width="1.7" height="4.8" rx="0.85" transform="rotate(-24 43 30)" fill="#58C7C2"/>
    <rect x="49" y="26.2" width="1.7" height="4.8" rx="0.85" transform="rotate(22 49 26.2)" fill="#F59E0B"/>
    <rect x="69" y="26.2" width="1.7" height="4.8" rx="0.85" transform="rotate(-16 69 26.2)" fill="#EF4444"/>
    <rect x="75" y="30" width="1.7" height="4.8" rx="0.85" transform="rotate(18 75 30)" fill="#2BB673"/>
  </g>
</svg>
